<svg xmlns="http://www.w3.org/2000/svg" width="218.885" height="43.376" viewBox="0 0 218.885 43.376">
  <g id="Gruppe_4" data-name="Gruppe 4" transform="translate(-1 -0.8)">
    <g id="Gruppe_1" data-name="Gruppe 1" transform="translate(1 0.8)">
      <path id="Pfad_1" data-name="Pfad 1" d="M6.653,20.678a10.136,10.136,0,0,1-4.012-3.83A11.3,11.3,0,0,1,1,11.377,11.141,11.141,0,0,1,2.459,5.906a10.136,10.136,0,0,1,4.012-3.83A11.973,11.973,0,0,1,12.307.8,11.9,11.9,0,0,1,17.6,1.894a8.078,8.078,0,0,1,3.83,3.1L17.231,8.642a5.389,5.389,0,0,0-4.377-2.371A4.29,4.29,0,0,0,9.389,7.548,5.874,5.874,0,0,0,8.112,11.2a4.967,4.967,0,0,0,1.277,3.647,4.005,4.005,0,0,0,3.465,1.641,5.158,5.158,0,0,0,4.377-2.371l4.377,3.83a12.482,12.482,0,0,1-3.83,3.1,12.472,12.472,0,0,1-5.289,1.094A14.483,14.483,0,0,1,6.653,20.678Z" transform="translate(-1 -0.8)" fill="#c22a41"/>
      <path id="Pfad_2" data-name="Pfad 2" d="M34.543,1V21.425h-6.93v-7.66H21.23v7.477H14.3V1h6.93V8.295h6.383V1Z" transform="translate(9.955 -0.635)" fill="#c22a41"/>
      <path id="Pfad_3" data-name="Pfad 3" d="M28.2,1h6.93V21.425H28.2Z" transform="translate(21.405 -0.635)" fill="#c22a41"/>
      <path id="Pfad_4" data-name="Pfad 4" d="M34.7,1h6.93V16.137h9.3v5.289H34.882V1Z" transform="translate(26.759 -0.635)" fill="#c22a41"/>
      <path id="Pfad_5" data-name="Pfad 5" d="M45.6,1h6.93V21.425H45.6Z" transform="translate(35.737 -0.635)" fill="#c22a41"/>
    </g>
    <g id="Gruppe_2" data-name="Gruppe 2" transform="translate(96.055 1.165)">
      <path id="Pfad_6" data-name="Pfad 6" d="M53.2,1h8.024a11.256,11.256,0,0,1,5.653,1.277,9.233,9.233,0,0,1,3.83,3.647,9.971,9.971,0,0,1,1.459,5.289A10.46,10.46,0,0,1,70.708,16.5a9.233,9.233,0,0,1-3.83,3.647,11.256,11.256,0,0,1-5.653,1.277H53.2Zm7.842,18.966a10.858,10.858,0,0,0,4.924-1.094,7.726,7.726,0,0,0,3.283-3.1,9.365,9.365,0,0,0,1.094-4.559,10.491,10.491,0,0,0-.912-4.742,6.783,6.783,0,0,0-3.283-3.1,10.858,10.858,0,0,0-4.924-1.094H54.659v17.69Z" transform="translate(-53.2 -1)" fill="#22323d"/>
      <path id="Pfad_7" data-name="Pfad 7" d="M67.3,1h1.459V21.425H67.3Z" transform="translate(-41.586 -1)" fill="#22323d"/>
      <path id="Pfad_8" data-name="Pfad 8" d="M88.5,11.13h1.459v7.66A9.928,9.928,0,0,1,86.672,20.8a14.227,14.227,0,0,1-4.012.729,11.014,11.014,0,0,1-5.471-1.277,10.532,10.532,0,0,1-3.83-3.647,10.315,10.315,0,0,1,0-10.577,9.234,9.234,0,0,1,3.83-3.647A11.014,11.014,0,0,1,82.66,1.1a10.7,10.7,0,0,1,4.195.729,9.928,9.928,0,0,1,3.283,2.006l-1.094.729a7.139,7.139,0,0,0-2.918-1.824,10.618,10.618,0,0,0-3.465-.547,10.1,10.1,0,0,0-4.742,1.094,7.157,7.157,0,0,0-3.283,3.283,10.082,10.082,0,0,0-1.277,4.559,7.834,7.834,0,0,0,1.277,4.559,8.125,8.125,0,0,0,3.283,3.283,10.1,10.1,0,0,0,4.742,1.094A8.934,8.934,0,0,0,88.5,18.243Z" transform="translate(-37.797 -0.918)" fill="#22323d"/>
      <path id="Pfad_9" data-name="Pfad 9" d="M86.3,1h1.459V21.425H86.3Z" transform="translate(-25.935 -1)" fill="#22323d"/>
      <path id="Pfad_10" data-name="Pfad 10" d="M97.395,2.277H90.1V1h16.231V2.277H99.036V21.425H97.577V2.277Z" transform="translate(-22.805 -1)" fill="#22323d"/>
      <path id="Pfad_11" data-name="Pfad 11" d="M115.549,15.59H103.694l-2.553,5.836H99.5L108.983,1h1.459l9.483,20.425h-1.641ZM115,14.313,109.713,2.459l-5.289,11.854Z" transform="translate(-15.063 -1)" fill="#22323d"/>
      <path id="Pfad_12" data-name="Pfad 12" d="M113.682,1h1.459V20.149h11.672v1.277H113.5V1Z" transform="translate(-3.531 -1)" fill="#22323d"/>
    </g>
    <g id="Gruppe_3" data-name="Gruppe 3" transform="translate(1 32.14)">
      <path id="Pfad_13" data-name="Pfad 13" d="M2.641,28.024A3.437,3.437,0,0,1,1,27.295l.912-1.824a8.891,8.891,0,0,0,1.277.547,4.016,4.016,0,0,0,1.459.182,1.367,1.367,0,0,0,.912-.182c.182-.182.365-.182.365-.365a.392.392,0,0,0-.365-.365,6.449,6.449,0,0,0-1.094-.182,5.325,5.325,0,0,1-1.641-.365,1.675,1.675,0,0,1-1.094-.729,1.8,1.8,0,0,1-.547-1.459,2.636,2.636,0,0,1,.365-1.277,3.271,3.271,0,0,1,1.277-.912A9.154,9.154,0,0,1,5.012,20a5.049,5.049,0,0,1,1.641.182,12.565,12.565,0,0,1,1.459.547L7.2,22.553a4.856,4.856,0,0,0-2.188-.547,1.367,1.367,0,0,0-.912.182c-.182.182-.365.182-.365.365a.392.392,0,0,0,.365.365,6.449,6.449,0,0,0,1.094.182,11.624,11.624,0,0,1,1.641.365,3.815,3.815,0,0,1,1.094.729,1.8,1.8,0,0,1,.547,1.459,2.636,2.636,0,0,1-.365,1.277,2.326,2.326,0,0,1-1.277.912,6.8,6.8,0,0,1-2.188.365A6.838,6.838,0,0,1,2.641,28.024Z" transform="translate(-1 -16.353)" fill="#22323d"/>
      <path id="Pfad_14" data-name="Pfad 14" d="M18.966,20.912a3.608,3.608,0,0,1,.912,2.553v4.559H17.142V24.012a2.636,2.636,0,0,0-.365-1.277,1.393,1.393,0,0,0-.912-.365,2.592,2.592,0,0,0-1.094.365c-.365.182-.365.729-.365,1.277v4.012H11.671V24.012c0-1.094-.365-1.641-1.277-1.641a2.592,2.592,0,0,0-1.094.365c-.365.182-.365.729-.365,1.277v4.012H6.2V20.182H8.753v.912a3.815,3.815,0,0,1,1.094-.729A4.292,4.292,0,0,1,11.306,20a3.436,3.436,0,0,1,1.459.365,4.835,4.835,0,0,1,1.094.912,4.835,4.835,0,0,1,1.094-.912A4.355,4.355,0,0,1,16.6,20,3.841,3.841,0,0,1,18.966,20.912Z" transform="translate(3.283 -16.353)" fill="#22323d"/>
      <path id="Pfad_15" data-name="Pfad 15" d="M21.73,20.994a3.2,3.2,0,0,1,1.094,2.736v4.377H20.271V27.012c-.365.729-1.094,1.094-2.371,1.094a5.325,5.325,0,0,1-1.641-.365,4.835,4.835,0,0,1-1.094-.912,2.636,2.636,0,0,1-.365-1.277,2.532,2.532,0,0,1,.912-1.824,5.125,5.125,0,0,1,2.736-.547h1.641c0-.912-.547-1.277-1.641-1.277a2.313,2.313,0,0,0-1.094.182,3.986,3.986,0,0,0-.912.547l-.912-1.824a3.437,3.437,0,0,1,1.641-.729,6.2,6.2,0,0,1,1.824-.182A7.2,7.2,0,0,1,21.73,20.994Zm-2.371,5.289a2.517,2.517,0,0,0,.547-.729v-.729H18.812c-.729,0-1.277.182-1.277.729,0,.182.182.365.365.547s.365.182.729.182A.555.555,0,0,0,19.359,26.283Z" transform="translate(10.367 -16.435)" fill="#22323d"/>
      <path id="Pfad_16" data-name="Pfad 16" d="M24.247,20.282a4.048,4.048,0,0,1,1.641-.182v2.553h-.547a2.071,2.071,0,0,0-1.459.547,1.8,1.8,0,0,0-.547,1.459v3.647H20.6V20.465h2.553v.912A2.068,2.068,0,0,1,24.247,20.282Z" transform="translate(15.145 -16.27)" fill="#22323d"/>
      <path id="Pfad_17" data-name="Pfad 17" d="M30.483,28.319c-.182.182-.547.182-.912.365-.365,0-.729.182-1.094.182a3.1,3.1,0,0,1-2.371-.729,3.02,3.02,0,0,1-.912-2.188V23.212H24.1V21.206h1.094V19.2H27.93v2.006h1.824v2.006H27.93v2.553c0,.365,0,.547.182.729a.67.67,0,0,0,.547.182,1.644,1.644,0,0,0,.912-.182Z" transform="translate(17.999 -17.012)" fill="#22323d"/>
      <path id="Pfad_18" data-name="Pfad 18" d="M33.388,27.742a4.306,4.306,0,0,1-1.641-1.459,3.889,3.889,0,0,1-.547-2.188,4.856,4.856,0,0,1,.547-2.188,4.306,4.306,0,0,1,1.641-1.459,5.41,5.41,0,0,1,4.742,0,3.218,3.218,0,0,1,1.459,1.641L37.4,23.183a1.753,1.753,0,0,0-1.641-1.094,1.656,1.656,0,0,0-1.277.547,1.8,1.8,0,0,0-.547,1.459,2.071,2.071,0,0,0,.547,1.459,1.656,1.656,0,0,0,1.277.547A1.753,1.753,0,0,0,37.4,25.006L39.589,26.1a2.588,2.588,0,0,1-1.459,1.641,5.41,5.41,0,0,1-4.742,0Z" transform="translate(23.839 -16.435)" fill="#22323d"/>
      <path id="Pfad_19" data-name="Pfad 19" d="M45.007,20.182v7.842H42.453v-.729a3.815,3.815,0,0,1-1.094.729,3.1,3.1,0,0,1-1.277.182,3.151,3.151,0,0,1-2.371-.912,3.775,3.775,0,0,1-.912-2.736V20.182h2.736v4.012a2.126,2.126,0,0,0,.365,1.277,1.393,1.393,0,0,0,.912.365,1.576,1.576,0,0,0,1.094-.547c.365-.365.365-.729.365-1.459V20h2.736Z" transform="translate(28.445 -16.353)" fill="#22323d"/>
      <path id="Pfad_20" data-name="Pfad 20" d="M43.959,27.942a6.174,6.174,0,0,1-1.459-.547l.912-1.824a8.891,8.891,0,0,0,1.277.547,4.016,4.016,0,0,0,1.459.182,1.367,1.367,0,0,0,.912-.182c.182-.182.365-.182.365-.365a.392.392,0,0,0-.365-.365,6.448,6.448,0,0,0-1.094-.182,5.325,5.325,0,0,1-1.641-.365,1.675,1.675,0,0,1-1.094-.729,1.8,1.8,0,0,1-.547-1.459,2.636,2.636,0,0,1,.365-1.277,3.271,3.271,0,0,1,1.277-.912A6.556,6.556,0,0,1,46.33,20.1a5.049,5.049,0,0,1,1.641.182,12.565,12.565,0,0,1,1.459.547l-.912,1.824a4.856,4.856,0,0,0-2.188-.547,1.367,1.367,0,0,0-.912.182c-.182.182-.365.182-.365.365a.392.392,0,0,0,.365.365,6.449,6.449,0,0,0,1.094.182,11.627,11.627,0,0,1,1.641.365,3.815,3.815,0,0,1,1.094.729,1.8,1.8,0,0,1,.547,1.459,2.636,2.636,0,0,1-.365,1.277,2.326,2.326,0,0,1-1.277.912,6.8,6.8,0,0,1-2.188.365C45.236,28.124,44.506,28.124,43.959,27.942Z" transform="translate(33.133 -16.27)" fill="#22323d"/>
      <path id="Pfad_21" data-name="Pfad 21" d="M53.483,28.319c-.182.182-.547.182-.912.365-.365,0-.729.182-1.094.182a3.1,3.1,0,0,1-2.371-.729,3.02,3.02,0,0,1-.912-2.188V23.212H47.1V21.206h1.094V19.2H50.93v2.006h1.824v2.006H50.93v2.553c0,.365,0,.547.182.729a.67.67,0,0,0,.547.182,1.644,1.644,0,0,0,.912-.182Z" transform="translate(36.917 -17.012)" fill="#22323d"/>
      <path id="Pfad_22" data-name="Pfad 22" d="M53.588,27.742a4.306,4.306,0,0,1-1.641-1.459,3.889,3.889,0,0,1-.547-2.188,4.856,4.856,0,0,1,.547-2.188,4.306,4.306,0,0,1,1.641-1.459,5.41,5.41,0,0,1,4.742,0,4.306,4.306,0,0,1,1.641,1.459,3.889,3.889,0,0,1,.547,2.188,4.856,4.856,0,0,1-.547,2.188,4.306,4.306,0,0,1-1.641,1.459,5.41,5.41,0,0,1-4.742,0Zm3.465-2.188a1.8,1.8,0,0,0,.547-1.459,2.071,2.071,0,0,0-.547-1.459,1.763,1.763,0,0,0-2.553,0,4.016,4.016,0,0,0-.182,1.459,2.071,2.071,0,0,0,.547,1.459,1.656,1.656,0,0,0,1.277.547A.842.842,0,0,0,57.053,25.553Z" transform="translate(40.452 -16.435)" fill="#22323d"/>
      <path id="Pfad_23" data-name="Pfad 23" d="M70.084,20.813A3.608,3.608,0,0,1,71,23.367v4.559H68.26V23.914a2.636,2.636,0,0,0-.365-1.277,1.393,1.393,0,0,0-.912-.365,2.592,2.592,0,0,0-1.094.365c-.365.182-.182.729-.182,1.459v4.012H62.971V24.1c0-1.094-.365-1.641-1.277-1.641a2.592,2.592,0,0,0-1.094.365c-.365.182-.365.547-.365,1.277v4.012H57.5V20.266h2.553v.912a3.815,3.815,0,0,1,1.094-.729,3.1,3.1,0,0,1,1.277-.182,3.435,3.435,0,0,1,1.459.365,4.835,4.835,0,0,1,1.094.912,4.836,4.836,0,0,1,1.094-.912,4.355,4.355,0,0,1,1.641-.365A2.124,2.124,0,0,1,70.084,20.813Z" transform="translate(45.468 -16.254)" fill="#22323d"/>
      <path id="Pfad_24" data-name="Pfad 24" d="M74.489,24.824H68.653a1.821,1.821,0,0,0,.729.912,2.636,2.636,0,0,0,1.277.365,1.367,1.367,0,0,0,.912-.182c.365-.182.547-.365.912-.547l1.459,1.459a3.9,3.9,0,0,1-3.283,1.277,4.562,4.562,0,0,1-2.371-.547A4.306,4.306,0,0,1,66.647,26.1a3.889,3.889,0,0,1-.547-2.188,3.676,3.676,0,0,1,.547-2.006,4.306,4.306,0,0,1,1.641-1.459,4.65,4.65,0,0,1,4.377,0,2.848,2.848,0,0,1,1.459,1.459,3.889,3.889,0,0,1,.547,2.188A1.379,1.379,0,0,1,74.489,24.824Zm-5.106-2.371a1,1,0,0,0-.547.912h3.283a1,1,0,0,0-.547-.912,2.592,2.592,0,0,0-1.094-.365A1.955,1.955,0,0,0,69.383,22.453Z" transform="translate(52.543 -16.435)" fill="#22323d"/>
      <path id="Pfad_25" data-name="Pfad 25" d="M75.647,20.282a4.048,4.048,0,0,1,1.641-.182v2.553h-.547a2.071,2.071,0,0,0-1.459.547,1.8,1.8,0,0,0-.547,1.459v3.647H72V20.465h2.553v.912A2.068,2.068,0,0,1,75.647,20.282Z" transform="translate(57.397 -16.27)" fill="#22323d"/>
      <path id="Pfad_26" data-name="Pfad 26" d="M79.959,27.942a6.174,6.174,0,0,1-1.459-.547l.912-1.824a8.891,8.891,0,0,0,1.277.547,4.016,4.016,0,0,0,1.459.182,1.367,1.367,0,0,0,.912-.182c.182-.182.365-.182.365-.365a.392.392,0,0,0-.365-.365,6.449,6.449,0,0,0-1.094-.182,5.325,5.325,0,0,1-1.641-.365,1.675,1.675,0,0,1-1.094-.729,1.8,1.8,0,0,1-.547-1.459,2.636,2.636,0,0,1,.365-1.277,3.271,3.271,0,0,1,1.277-.912A6.556,6.556,0,0,1,82.33,20.1a5.049,5.049,0,0,1,1.641.182,12.564,12.564,0,0,1,1.459.547l-.912,1.824a4.856,4.856,0,0,0-2.188-.547,1.367,1.367,0,0,0-.912.182c-.182-.182-.182,0-.182.182a.392.392,0,0,0,.365.365,6.449,6.449,0,0,0,1.094.182,11.624,11.624,0,0,1,1.641.365,3.815,3.815,0,0,1,1.094.729,1.8,1.8,0,0,1,.547,1.459,2.636,2.636,0,0,1-.365,1.277,2.326,2.326,0,0,1-1.277.912,6.8,6.8,0,0,1-2.188.365A7.515,7.515,0,0,1,79.959,27.942Z" transform="translate(62.742 -16.27)" fill="#22323d"/>
      <path id="Pfad_27" data-name="Pfad 27" d="M85.588,27.742a4.305,4.305,0,0,1-1.641-1.459,3.889,3.889,0,0,1-.547-2.188,4.856,4.856,0,0,1,.547-2.188,4.305,4.305,0,0,1,1.641-1.459,5.41,5.41,0,0,1,4.742,0,4.306,4.306,0,0,1,1.641,1.459,3.889,3.889,0,0,1,.547,2.188,4.856,4.856,0,0,1-.547,2.188,4.306,4.306,0,0,1-1.641,1.459,5.048,5.048,0,0,1-2.371.547A4.563,4.563,0,0,1,85.588,27.742Zm3.465-2.188a1.8,1.8,0,0,0,.547-1.459,2.071,2.071,0,0,0-.547-1.459,1.763,1.763,0,0,0-2.553,0,1.8,1.8,0,0,0-.547,1.459,2.071,2.071,0,0,0,.547,1.459,1.763,1.763,0,0,0,2.553,0Z" transform="translate(66.772 -16.435)" fill="#22323d"/>
      <path id="Pfad_28" data-name="Pfad 28" d="M89.5,18.5h2.736V29.26H89.5Z" transform="translate(71.792 -17.588)" fill="#22323d"/>
      <path id="Pfad_29" data-name="Pfad 29" d="M100.707,20.182v7.842H98.153v-.729a3.815,3.815,0,0,1-1.094.729,3.1,3.1,0,0,1-1.277.182,3.15,3.15,0,0,1-2.371-.912,3.775,3.775,0,0,1-.912-2.736V20.182h2.736v4.012a2.125,2.125,0,0,0,.365,1.277,1.393,1.393,0,0,0,.912.365,1.576,1.576,0,0,0,1.094-.547c.365-.365.365-.729.365-1.459V20h2.736Z" transform="translate(74.256 -16.353)" fill="#22323d"/>
      <path id="Pfad_30" data-name="Pfad 30" d="M104.2,28.319c-.182.182-.547.182-.912.365-.365,0-.729.182-1.094.182a3.1,3.1,0,0,1-2.371-.729,3.02,3.02,0,0,1-.912-2.188V23.212H98V21.206h1.094V19.2h2.736v2.006h1.824v2.006H101.83v2.553c0,.365,0,.547.182.729a.67.67,0,0,0,.547.182,1.644,1.644,0,0,0,.912-.182Z" transform="translate(78.757 -17.012)" fill="#22323d"/>
      <path id="Pfad_31" data-name="Pfad 31" d="M102.847,20.553a1.368,1.368,0,0,1,0-2.188A1.539,1.539,0,0,1,104.124,18a2.636,2.636,0,0,1,1.277.365,1.1,1.1,0,0,1,.547,1.094,1.576,1.576,0,0,1-.547,1.094,1.539,1.539,0,0,1-1.277.365A2.636,2.636,0,0,1,102.847,20.553Zm-.182,1.277H105.4v7.842h-2.736Z" transform="translate(82.299 -18)" fill="#22323d"/>
      <path id="Pfad_32" data-name="Pfad 32" d="M107.388,27.742a4.306,4.306,0,0,1-1.641-1.459,3.889,3.889,0,0,1-.547-2.188,4.856,4.856,0,0,1,.547-2.188,4.306,4.306,0,0,1,1.641-1.459,5.41,5.41,0,0,1,4.742,0,4.305,4.305,0,0,1,1.641,1.459,3.889,3.889,0,0,1,.547,2.188,4.856,4.856,0,0,1-.547,2.188,4.305,4.305,0,0,1-1.641,1.459,5.41,5.41,0,0,1-4.742,0Zm3.465-2.188a1.8,1.8,0,0,0,.547-1.459,2.071,2.071,0,0,0-.547-1.459,1.763,1.763,0,0,0-2.553,0,1.8,1.8,0,0,0-.547,1.459,2.071,2.071,0,0,0,.547,1.459,1.656,1.656,0,0,0,1.277.547A1.42,1.42,0,0,0,110.853,25.553Z" transform="translate(84.688 -16.435)" fill="#22323d"/>
      <path id="Pfad_33" data-name="Pfad 33" d="M118.695,20.813a3.608,3.608,0,0,1,.912,2.553v4.559h-2.736V23.914c0-1.094-.365-1.641-1.277-1.641a1.1,1.1,0,0,0-1.094.547c-.365.365-.365.729-.365,1.459v3.83H111.4V20.266h2.553v.912a3.815,3.815,0,0,1,1.094-.729,3.555,3.555,0,0,1,1.459-.182A1.923,1.923,0,0,1,118.695,20.813Z" transform="translate(89.795 -16.254)" fill="#22323d"/>
      <path id="Pfad_34" data-name="Pfad 34" d="M118.559,27.942a6.174,6.174,0,0,1-1.459-.547l.912-1.824a8.892,8.892,0,0,0,1.277.547,4.016,4.016,0,0,0,1.459.182,1.367,1.367,0,0,0,.912-.182c.182-.182.365-.182.365-.365a.392.392,0,0,0-.365-.365,6.449,6.449,0,0,0-1.094-.182,5.325,5.325,0,0,1-1.641-.365,1.675,1.675,0,0,1-1.094-.729,1.8,1.8,0,0,1-.547-1.459,2.636,2.636,0,0,1,.365-1.277,3.272,3.272,0,0,1,1.277-.912,6.556,6.556,0,0,1,2.006-.365,5.049,5.049,0,0,1,1.641.182,12.565,12.565,0,0,1,1.459.547l-.912,1.824a4.856,4.856,0,0,0-2.188-.547,1.367,1.367,0,0,0-.912.182c-.182.182-.365.182-.365.365a.392.392,0,0,0,.365.365,6.449,6.449,0,0,0,1.094.182,11.627,11.627,0,0,1,1.641.365,3.815,3.815,0,0,1,1.094.729,1.8,1.8,0,0,1,.547,1.459,2.636,2.636,0,0,1-.365,1.277,2.326,2.326,0,0,1-1.277.912,6.8,6.8,0,0,1-2.188.365C119.836,28.124,119.106,28.124,118.559,27.942Z" transform="translate(94.49 -16.27)" fill="#22323d"/>
    </g>
  </g>
</svg>
