<svg xmlns="http://www.w3.org/2000/svg" width="218.338" height="21.337" viewBox="0 0 218.338 21.337">
  <g id="Gruppe_88" data-name="Gruppe 88" transform="translate(-220 -28)">
    <g id="Gruppe_1" data-name="Gruppe 1" transform="translate(220 28)">
      <path id="Pfad_1" data-name="Pfad 1" d="M6.653,20.678a10.136,10.136,0,0,1-4.012-3.83A11.3,11.3,0,0,1,1,11.377,11.141,11.141,0,0,1,2.459,5.906a10.136,10.136,0,0,1,4.012-3.83A11.973,11.973,0,0,1,12.307.8,11.9,11.9,0,0,1,17.6,1.894a8.078,8.078,0,0,1,3.83,3.1L17.231,8.642a5.389,5.389,0,0,0-4.377-2.371A4.29,4.29,0,0,0,9.389,7.548,5.874,5.874,0,0,0,8.112,11.2a4.967,4.967,0,0,0,1.277,3.647,4.005,4.005,0,0,0,3.465,1.641,5.158,5.158,0,0,0,4.377-2.371l4.377,3.83a12.482,12.482,0,0,1-3.83,3.1,12.472,12.472,0,0,1-5.289,1.094A14.483,14.483,0,0,1,6.653,20.678Z" transform="translate(-1 -0.8)" fill="#c22a41"/>
      <path id="Pfad_2" data-name="Pfad 2" d="M34.543,1V21.425h-6.93v-7.66H21.23v7.477H14.3V1h6.93V8.295h6.383V1Z" transform="translate(9.955 -0.635)" fill="#c22a41"/>
      <path id="Pfad_3" data-name="Pfad 3" d="M28.2,1h6.93V21.425H28.2Z" transform="translate(21.405 -0.635)" fill="#c22a41"/>
      <path id="Pfad_4" data-name="Pfad 4" d="M34.7,1h6.93V16.137h9.3v5.289H34.882V1Z" transform="translate(26.759 -0.635)" fill="#c22a41"/>
      <path id="Pfad_5" data-name="Pfad 5" d="M45.6,1h6.93V21.425H45.6Z" transform="translate(35.737 -0.635)" fill="#c22a41"/>
    </g>
    <g id="Gruppe_2" data-name="Gruppe 2" transform="translate(315.055 28.365)">
      <path id="Pfad_6" data-name="Pfad 6" d="M53.2,1h8.024a11.256,11.256,0,0,1,5.653,1.277,9.233,9.233,0,0,1,3.83,3.647,9.971,9.971,0,0,1,1.459,5.289A10.46,10.46,0,0,1,70.708,16.5a9.233,9.233,0,0,1-3.83,3.647,11.256,11.256,0,0,1-5.653,1.277H53.2Zm7.842,18.966a10.858,10.858,0,0,0,4.924-1.094,7.726,7.726,0,0,0,3.283-3.1,9.365,9.365,0,0,0,1.094-4.559,10.491,10.491,0,0,0-.912-4.742,6.783,6.783,0,0,0-3.283-3.1,10.858,10.858,0,0,0-4.924-1.094H54.659v17.69Z" transform="translate(-53.2 -1)" fill="#22323d"/>
      <path id="Pfad_7" data-name="Pfad 7" d="M67.3,1h1.459V21.425H67.3Z" transform="translate(-41.586 -1)" fill="#22323d"/>
      <path id="Pfad_8" data-name="Pfad 8" d="M88.5,11.13h1.459v7.66A9.928,9.928,0,0,1,86.672,20.8a14.227,14.227,0,0,1-4.012.729,11.014,11.014,0,0,1-5.471-1.277,10.532,10.532,0,0,1-3.83-3.647,10.315,10.315,0,0,1,0-10.577,9.234,9.234,0,0,1,3.83-3.647A11.014,11.014,0,0,1,82.66,1.1a10.7,10.7,0,0,1,4.195.729,9.928,9.928,0,0,1,3.283,2.006l-1.094.729a7.139,7.139,0,0,0-2.918-1.824,10.618,10.618,0,0,0-3.465-.547,10.1,10.1,0,0,0-4.742,1.094,7.157,7.157,0,0,0-3.283,3.283,10.082,10.082,0,0,0-1.277,4.559,7.834,7.834,0,0,0,1.277,4.559,8.125,8.125,0,0,0,3.283,3.283,10.1,10.1,0,0,0,4.742,1.094A8.934,8.934,0,0,0,88.5,18.243Z" transform="translate(-37.797 -0.918)" fill="#22323d"/>
      <path id="Pfad_9" data-name="Pfad 9" d="M86.3,1h1.459V21.425H86.3Z" transform="translate(-25.935 -1)" fill="#22323d"/>
      <path id="Pfad_10" data-name="Pfad 10" d="M97.395,2.277H90.1V1h16.231V2.277H99.036V21.425H97.577V2.277Z" transform="translate(-22.805 -1)" fill="#22323d"/>
      <path id="Pfad_11" data-name="Pfad 11" d="M115.549,15.59H103.694l-2.553,5.836H99.5L108.983,1h1.459l9.483,20.425h-1.641ZM115,14.313,109.713,2.459l-5.289,11.854Z" transform="translate(-15.063 -1)" fill="#22323d"/>
      <path id="Pfad_12" data-name="Pfad 12" d="M113.682,1h1.459V20.149h11.672v1.277H113.5V1Z" transform="translate(-3.531 -1)" fill="#22323d"/>
    </g>
  </g>
</svg>
