<svg xmlns="http://www.w3.org/2000/svg" width="32.839" height="20.945" viewBox="0 0 32.839 20.945">
  <g id="_1" data-name=" 1" transform="translate(-54.13 -136.52)">
    <path id="Pfad_35" data-name="Pfad 35" d="M85.744,138.971H55.355a1.225,1.225,0,1,1,0-2.451H85.744a1.225,1.225,0,0,1,0,2.451Z" transform="translate(0)" fill="#21313d"/>
    <path id="Pfad_36" data-name="Pfad 36" d="M85.744,252.171H55.355a1.225,1.225,0,1,1,0-2.451H85.744a1.225,1.225,0,1,1,0,2.451Z" transform="translate(0 -103.953)" fill="#21313d"/>
    <path id="Pfad_37" data-name="Pfad 37" d="M85.744,365.371H55.355a1.225,1.225,0,1,1,0-2.451H85.744a1.225,1.225,0,0,1,0,2.451Z" transform="translate(0 -207.905)" fill="#21313d"/>
  </g>
</svg>
